<?xml version="1.0" encoding="utf-8"?>
<!-- Generator: Adobe Illustrator 16.0.0, SVG Export Plug-In . SVG Version: 6.00 Build 0)  -->
<!DOCTYPE svg PUBLIC "-//W3C//DTD SVG 1.1//EN" "http://www.w3.org/Graphics/SVG/1.1/DTD/svg11.dtd">
<svg version="1.1" id="Слой_1" xmlns="http://www.w3.org/2000/svg" xmlns:xlink="http://www.w3.org/1999/xlink" x="0px" y="0px"
	 width="151.559px" height="154.632px" viewBox="0 0 151.559 154.632" enable-background="new 0 0 151.559 154.632"
	 xml:space="preserve">
<g>
	<g>
		<g>
			<path fill="#F7931E" d="M85.947,19.287l-5.594-0.812l-2.5-5.063c-0.898-1.817-3.495-1.816-4.391,0l-2.502,5.063l-5.592,0.812
				c-2.008,0.292-2.811,2.758-1.357,4.171l4.047,3.941l-0.955,5.563c-0.344,1.997,1.756,3.522,3.551,2.579l5.004-2.627l5.002,2.627
				c1.793,0.942,3.895-0.581,3.551-2.578l-0.955-5.564l4.047-3.94C88.755,22.044,87.953,19.578,85.947,19.287z M79.871,25.104
				c-0.576,0.561-0.838,1.369-0.703,2.164l0.559,3.26l-2.928-1.539c-0.715-0.375-1.565-0.375-2.28,0l-2.932,1.539l0.561-3.259
				c0.137-0.794-0.127-1.604-0.705-2.166l-2.371-2.309l3.277-0.476c0.797-0.115,1.486-0.615,1.844-1.337l1.465-2.966l1.465,2.966
				c0.357,0.722,1.047,1.222,1.844,1.337l3.275,0.476L79.871,25.104z M143.767,91.653c-3.896-3.469-9.893-3.631-13.963-0.051
				c0.381-1.975,0.59-3.689,0.701-5.467c7.82,1.623,14.404-5.623,12.309-13.139c-0.193-0.69-0.74-1.226-1.436-1.403
				c-4.25-1.082-8.887,0.581-11.402,4.398c-0.26-1.578-0.6-3.16-1.018-4.743c7.869-1.857,10.805-11.522,5.293-17.433
				c-0.49-0.525-1.223-0.747-1.92-0.585c-3.578,0.832-6.475,3.485-7.623,6.952c-0.715-1.417-1.406-2.672-2.232-4.052
				c7.445-2.837,9.15-12.551,3.191-17.764c-0.539-0.473-1.289-0.62-1.969-0.388c-4.102,1.404-7.064,5.263-7.125,9.805
				c-0.383-0.459-0.723-0.85-1.004-1.167c1.02-7.617-6.162-13.67-13.455-11.501c-0.688,0.205-1.213,0.761-1.377,1.458
				c-1.707,7.214,4.426,14.019,11.934,12.819c0.643,0.731,1.59,1.862,2.695,3.34c-4.42-1.513-9.199,0.098-11.869,3.698
				c-0.428,0.576-0.514,1.336-0.229,1.993c3.021,6.911,12.264,8.605,17.48,2.852c1.137,2.173,2.219,4.571,3.139,7.154
				c-3.973-2.814-9.266-2.475-12.857,0.533c-0.551,0.46-0.813,1.179-0.686,1.885c1.293,7.257,9.506,11.029,15.883,7.136
				c0.377,2.848,0.477,5.824,0.203,8.893c-2.059-3.584-5.99-5.557-9.963-5.248c-0.715,0.057-1.346,0.49-1.654,1.137
				c-3.221,6.775,1.486,14.682,9.035,15.039c-1.066,2.738-2.445,5.426-4.129,8.061c-0.408-5.607-5.1-9.756-10.514-9.756h-0.047
				c-0.717,0.004-1.379,0.389-1.732,1.012c-3.535,6.213,0.016,14.152,7.152,15.547c-1.82,2.078-3.848,4.119-6.076,6.121
				c0.799-4.768-1.766-9.311-5.93-11.26c-0.648-0.305-1.412-0.238-2,0.174c-5.998,4.197-6.025,13.154,0.131,17.338
				c-1.703,1.225-3.484,2.436-5.352,3.627c-0.934,0.596-1.207,1.834-0.609,2.766c0.596,0.932,1.836,1.205,2.768,0.609
				c1.471-0.941,2.889-1.893,4.264-2.855c1.758,7.15,10.018,10.266,16.045,6.293c0.6-0.395,0.941-1.08,0.896-1.795
				c-0.322-5.195-4.459-9.555-9.908-9.863c1.348-1.127,2.633-2.266,3.857-3.418c1.551,7.352,9.977,10.678,16.123,6.627
				c0.6-0.395,0.941-1.078,0.896-1.795c-0.379-6.119-5.961-10.779-12.256-9.732c1.295-1.467,2.49-2.951,3.594-4.457
				c4.049,6.637,13.584,6.742,17.816,0.314c0.395-0.598,0.438-1.361,0.115-2.002c-2.506-4.957-8.543-7.234-13.799-4.824
				c0.871-1.627,1.635-3.273,2.297-4.939c6.148,4.955,15.34,1.637,16.945-6.041C144.542,92.856,144.304,92.129,143.767,91.653z
				 M139.169,75.283c0.328,3.965-2.918,7.299-6.91,7.061C131.931,78.372,135.181,75.046,139.169,75.283z M104.468,38.715
				c3.975-0.397,7.355,2.8,7.186,6.78C107.671,45.893,104.298,42.689,104.468,38.715z M107.541,57.901
				c2.939-2.702,7.566-2.169,9.82,1.115C114.427,61.712,109.8,61.194,107.541,57.901z M123.873,42.274
				c2.459,3.148,1.551,7.711-1.908,9.688C119.507,48.813,120.412,44.252,123.873,42.274z M114.619,71.334
				c3.49-1.942,7.865-0.348,9.291,3.372C120.414,76.651,116.042,75.048,114.619,71.334z M123.615,93.776
				c-3.971-0.443-6.605-4.277-5.604-8.133C121.976,86.084,124.619,89.915,123.615,93.776z M102.789,121.62
				c-3.234-2.342-3.631-6.979-0.854-9.838C105.167,114.125,105.564,118.76,102.789,121.62z M114.523,132.717
				c-3.689,1.533-7.852-0.551-8.844-4.408C109.369,126.778,113.533,128.86,114.523,132.717z M115.394,108.75
				c-3.928-0.734-6.273-4.752-4.99-8.525C114.332,100.959,116.677,104.979,115.394,108.75z M125.492,124.27
				c-3.697,1.533-7.855-0.559-8.844-4.41C120.337,118.329,124.5,120.411,125.492,124.27z M134.718,110.124
				c-2.803,2.881-7.447,2.572-9.869-0.563C127.634,106.698,132.283,106.969,134.718,110.124z M132.07,57.522
				c2.123,3.38,0.76,7.827-2.885,9.444C127.062,63.586,128.423,59.139,132.07,57.522z M130.722,97.006
				c1.539-3.682,5.961-5.135,9.387-3.092C138.57,97.596,134.146,99.047,130.722,97.006z M56.149,128.67
				c-1.867-1.191-3.648-2.402-5.352-3.629c6.162-4.188,6.121-13.145,0.131-17.338c-0.588-0.41-1.352-0.477-2.002-0.172
				c-4.154,1.945-6.729,6.482-5.928,11.26c-2.231-2.002-4.257-4.043-6.078-6.123c7.14-1.393,10.687-9.336,7.152-15.545
				c-0.354-0.623-1.015-1.01-1.732-1.012c-5.407-0.021-10.148,4.107-10.56,9.754c-1.685-2.633-3.062-5.322-4.128-8.061
				c7.561-0.357,12.249-8.273,9.034-15.037c-0.308-0.646-0.938-1.08-1.654-1.137c-3.936-0.307-7.887,1.635-9.963,5.246
				c-0.274-3.078-0.165-6.055,0.21-8.887c6.359,3.875,14.581,0.133,15.876-7.141c0.126-0.706-0.136-1.425-0.686-1.885
				c-3.602-3.017-8.897-3.341-12.862-0.529c0.942-2.665,2.038-5.077,3.13-7.17c5.175,5.725,14.443,4.14,17.492-2.839
				c0.287-0.657,0.201-1.417-0.227-1.993c-2.66-3.585-7.437-5.221-11.881-3.694c1.109-1.479,2.06-2.612,2.705-3.345
				c7.51,1.201,13.643-5.605,11.936-12.819c-0.164-0.698-0.689-1.254-1.379-1.458C42.1,32.951,34.91,38.991,35.932,46.618
				c-0.283,0.317-0.621,0.708-1.004,1.167c-0.061-4.539-3.021-8.4-7.125-9.805c-0.679-0.233-1.43-0.085-1.97,0.388
				c-5.946,5.202-4.265,14.921,3.192,17.764c-0.797,1.333-1.494,2.589-2.233,4.053c-1.148-3.467-4.045-6.121-7.623-6.952
				c-0.699-0.162-1.431,0.061-1.92,0.585c-5.511,5.911-2.576,15.576,5.294,17.433c-0.419,1.583-0.759,3.165-1.018,4.743
				c-2.512-3.812-7.144-5.482-11.402-4.398c-0.695,0.177-1.243,0.712-1.435,1.403c-2.098,7.521,4.491,14.76,12.307,13.139
				c0.11,1.77,0.319,3.484,0.702,5.467c-4.048-3.561-10.043-3.438-13.964,0.051c-0.536,0.477-0.775,1.203-0.629,1.904
				c1.613,7.711,10.824,10.975,16.945,6.041c0.663,1.666,1.425,3.313,2.297,4.938c-5.25-2.406-11.291-0.135-13.799,4.826
				c-0.323,0.641-0.28,1.404,0.115,2.002c4.223,6.414,13.75,6.352,17.816-0.314c1.105,1.504,2.3,2.99,3.595,4.457
				c-6.292-1.047-11.877,3.609-12.257,9.732c-0.045,0.717,0.297,1.4,0.896,1.795c6.133,4.041,14.566,0.75,16.124-6.627
				c1.224,1.152,2.51,2.291,3.857,3.418c-5.445,0.309-9.587,4.662-9.909,9.863c-0.044,0.715,0.297,1.4,0.896,1.795
				c6.033,3.975,14.288,0.855,16.046-6.293c1.375,0.963,2.793,1.914,4.266,2.855c0.334,0.213,0.707,0.314,1.076,0.314
				c0.662,0,1.309-0.326,1.691-0.924C57.354,130.504,57.083,129.266,56.149,128.67z M33.488,85.643
				c1.004,3.863-1.641,7.691-5.604,8.133C26.881,89.913,29.525,86.084,33.488,85.643z M47.032,38.715
				c0.17,3.989-3.219,7.176-7.187,6.78C39.676,41.51,43.062,38.318,47.032,38.715z M43.96,57.901
				c-2.259,3.292-6.886,3.811-9.821,1.115C36.398,55.724,41.025,55.205,43.96,57.901z M27.626,42.274
				c3.469,1.982,4.361,6.546,1.91,9.688C26.068,49.98,25.175,45.415,27.626,42.274z M36.881,71.334
				c-1.425,3.719-5.799,5.314-9.29,3.372C29.018,70.98,33.398,69.396,36.881,71.334z M19.241,82.344
				c-3.995,0.236-7.238-3.096-6.91-7.061C16.32,75.044,19.569,78.374,19.241,82.344z M11.392,93.913
				c3.43-2.045,7.85-0.582,9.387,3.094C17.349,99.051,12.928,97.59,11.392,93.913z M22.314,66.966
				c-3.652-1.621-5.004-6.071-2.884-9.444C23.082,59.141,24.434,63.592,22.314,66.966z M16.782,110.124
				c2.44-3.16,7.089-3.42,9.869-0.563C24.219,112.709,19.573,112.991,16.782,110.124z M26.008,124.27
				c0.992-3.859,5.154-5.941,8.845-4.41C33.861,123.719,29.699,125.801,26.008,124.27z M41.095,100.225
				c1.287,3.781-1.069,7.793-4.988,8.525C34.82,104.971,37.176,100.958,41.095,100.225z M36.976,132.717
				c0.991-3.859,5.156-5.939,8.845-4.408C44.827,132.176,40.658,134.247,36.976,132.717z M48.712,121.62
				c-2.781-2.865-2.373-7.498,0.855-9.838C52.349,114.645,51.94,119.282,48.712,121.62z"/>
		</g>
	</g>
	<g>
		<path fill="#F7931E" d="M64.526,78.645l1.969-17.344h19.127v5.648H72.052l-0.844,7.336c1.609-0.859,3.32-1.289,5.133-1.289
			c3.25,0,5.797,1.008,7.641,3.023c1.844,2.014,2.766,4.836,2.766,8.461c0,2.203-0.465,4.176-1.395,5.918s-2.262,3.094-3.996,4.055
			s-3.781,1.441-6.141,1.441c-2.063,0-3.977-0.418-5.744-1.254c-1.766-0.836-3.16-2.012-4.184-3.527s-1.566-3.242-1.629-5.18h6.705
			c0.141,1.422,0.637,2.527,1.488,3.316s1.965,1.184,3.34,1.184c1.532,0,2.711-0.551,3.54-1.652s1.242-2.66,1.242-4.676
			c0-1.938-0.477-3.422-1.43-4.453s-2.305-1.549-4.055-1.549c-1.609,0-2.914,0.424-3.914,1.268l-0.656,0.609L64.526,78.645z"/>
	</g>
</g>
</svg>
