<?xml version="1.0" encoding="utf-8"?>
<!-- Generator: Adobe Illustrator 16.0.0, SVG Export Plug-In . SVG Version: 6.00 Build 0)  -->
<!DOCTYPE svg PUBLIC "-//W3C//DTD SVG 1.1//EN" "http://www.w3.org/Graphics/SVG/1.1/DTD/svg11.dtd">
<svg version="1.1" id="Слой_1" xmlns="http://www.w3.org/2000/svg" xmlns:xlink="http://www.w3.org/1999/xlink" x="0px" y="0px"
	 width="151.559px" height="154.632px" viewBox="0 0 151.559 154.632" enable-background="new 0 0 151.559 154.632"
	 xml:space="preserve">
<g>
	<g>
		<path fill="#F7931E" d="M59.331,107.76c-0.891,0-1.613,0.723-1.613,1.615v6.899c0,0.891,0.723,1.614,1.613,1.614
			s1.613-0.724,1.613-1.614v-6.899C60.944,108.482,60.222,107.76,59.331,107.76z M93.811,107.76c-0.89,0-1.612,0.723-1.612,1.615
			v6.899c0,0.891,0.722,1.614,1.612,1.614c0.891,0,1.613-0.724,1.613-1.614v-6.899C95.424,108.482,94.702,107.76,93.811,107.76z
			 M46.26,73.428c-3.746-1.874-10.768-1.895-11.065-1.895c-0.891,0-1.613,0.722-1.613,1.613c0,0.892,0.721,1.614,1.612,1.614
			c1.815,0.001,7.081,0.283,9.624,1.555c0.231,0.116,0.478,0.171,0.72,0.171c0.591,0,1.161-0.327,1.444-0.892
			C47.379,74.797,47.057,73.827,46.26,73.428z M30.022,104.309c-0.891,0-1.613,0.724-1.613,1.614v10.351
			c0,0.892,0.722,1.614,1.613,1.614s1.613-0.722,1.613-1.614v-10.351C31.635,105.033,30.914,104.309,30.022,104.309z
			 M127.877,98.281l-6.531-3.268c-0.038-0.018-0.062-0.057-0.062-0.099V91.63c2.682-1.848,4.58-4.769,5.055-8.196
			c1.206-2.086,1.841-4.442,1.841-6.837c0-4.466-2.149-8.439-5.466-10.94c0.194-0.647,0.295-1.316,0.295-1.998
			c0-4.219-3.817-7.652-8.509-7.652c-4.691,0-8.509,3.433-8.509,7.652c0,0.683,0.099,1.352,0.294,2
			c-1.978,1.491-3.537,3.506-4.476,5.837c-0.4-3.931-0.817-8.579-1.216-13.993c-0.527-7.143-3.094-13.176-7.424-17.445
			c-4.297-4.237-10.037-6.476-16.597-6.476c-6.561,0-12.3,2.239-16.596,6.476c-4.331,4.27-6.898,10.302-7.425,17.445
			c-0.14,1.896-0.282,3.694-0.424,5.405H36.919c-5.643,0-10.234,4.593-10.234,10.239v0.096c0,1.315,0.311,2.632,0.898,3.808
			l0.826,1.653v2.635c0,4.176,2.056,7.924,5.171,10.178v2.331c0,0.299-0.2,0.565-0.487,0.647l-6.659,1.903
			c-2.898,0.829-4.921,3.513-4.921,6.528v13.347c0,0.892,0.723,1.614,1.613,1.614s1.613-0.722,1.613-1.614v-13.347
			c0-1.582,1.062-2.99,2.582-3.425l6.659-1.904c0.24-0.068,0.469-0.162,0.686-0.272l4.087,4.09v14.857
			c0,0.892,0.723,1.614,1.613,1.614s1.613-0.722,1.613-1.614v-14.857l4.117-4.119c0.55,0.27,1.098,0.427,1.5,0.542l1.635,0.467
			c-2.216,1.577-3.582,4.148-3.582,6.936v11.031c0,0.891,0.723,1.614,1.613,1.614c0.891,0,1.613-0.724,1.613-1.614v-11.031
			c0-2.091,1.235-3.99,3.148-4.835l9.223-4.076c2.89,5.791,8.795,9.48,15.324,9.48c6.554,0,12.438-3.68,15.328-9.478l9.219,4.074
			c1.913,0.845,3.149,2.744,3.149,4.835v11.031c0,0.891,0.722,1.614,1.613,1.614s1.613-0.724,1.613-1.614v-11.031
			c0-2.064-0.751-4.009-2.038-5.521l2.497-1.249l1.873,1.782c1.312,1.247,2.993,1.869,4.674,1.869s3.364-0.623,4.675-1.869
			l1.873-1.782l5.388,2.696c1.215,0.607,1.968,1.827,1.968,3.185v11.919c0,0.892,0.722,1.614,1.613,1.614
			c0.891,0,1.613-0.722,1.613-1.614v-11.919C131.629,101.766,130.191,99.44,127.877,98.281z M114.5,59.235
			c2.913,0,5.283,1.984,5.283,4.424c0,0.102-0.008,0.203-0.018,0.305c-1.621-0.68-3.4-1.056-5.266-1.056
			c-1.866,0-3.645,0.376-5.266,1.056c-0.009-0.101-0.017-0.202-0.017-0.304C109.217,61.219,111.587,59.235,114.5,59.235z
			 M40.367,98.466l-3.675-3.678c0.076-0.303,0.116-0.619,0.116-0.94v-0.681c1.015,0.334,2.085,0.532,3.192,0.565
			c0.124,0.003,0.248,0.005,0.371,0.005c1.223,0,2.418-0.185,3.554-0.537v0.647c0,0.351,0.036,0.667,0.1,0.958L40.367,98.466z
			 M40.097,90.504c-4.665-0.14-8.461-4.251-8.461-9.166v-3.017c0-0.25-0.058-0.498-0.17-0.721l-0.996-1.994
			c-0.365-0.73-0.558-1.548-0.558-2.364v-0.096c0-3.866,3.143-7.012,7.007-7.012h13.903v6.701c0,1.083-0.256,2.167-0.74,3.135
			L49.268,77.6c-0.112,0.224-0.17,0.472-0.17,0.722v3.45c0,2.383-0.942,4.611-2.651,6.271
			C44.738,89.701,42.481,90.576,40.097,90.504z M53.579,96.193l-5.096-1.457c-1.331-0.38-1.331-0.529-1.331-0.888v-2.224
			c0.542-0.376,1.058-0.796,1.542-1.266c0.325-0.316,0.627-0.647,0.911-0.993c0.259,0.526,0.657,0.986,1.17,1.318
			c1.293,0.838,3.732,2.229,7.321,3.511L53.579,96.193z M76.571,102.584c-5.248,0-10.001-2.935-12.372-7.557l2.348-1.038
			c1.832-0.809,3.016-2.627,3.016-4.632v-3.873c2.167,0.872,4.532,1.353,7.007,1.353c2.475,0,4.84-0.481,7.006-1.353v3.873
			c0,2.005,1.185,3.823,3.017,4.632l2.348,1.038C86.574,99.654,81.839,102.584,76.571,102.584z M90.558,92.212l-2.66-1.176
			c-0.664-0.293-1.094-0.953-1.094-1.679v-5.548c5.184-3.366,8.62-9.208,8.62-15.837v-3.026c0-1.967-0.835-3.822-2.292-5.09
			c-3.241-2.821-10.577-7.743-23.296-9.015c-0.884-0.089-1.677,0.559-1.766,1.445c-0.088,0.888,0.559,1.678,1.445,1.767
			c11.83,1.184,18.548,5.669,21.5,8.239c0.752,0.654,1.184,1.622,1.184,2.654v3.026c0,8.622-7.011,15.637-15.627,15.637
			c-8.617,0-15.627-7.015-15.627-15.637v-1.351c0-0.62,0.344-1.188,0.919-1.52c2.017-1.162,4.677-3.314,5.895-6.97
			c0.281-0.845-0.175-1.76-1.021-2.042c-0.844-0.282-1.758,0.175-2.04,1.021c-0.897,2.693-2.912,4.31-4.444,5.192
			c-1.563,0.901-2.536,2.556-2.536,4.318v1.35c0,6.63,3.437,12.472,8.621,15.837v5.548c0,0.727-0.43,1.386-1.094,1.68l-2.66,1.176
			c-5.195-1.391-8.524-3.246-10.056-4.238c-0.031-0.019-0.048-0.042-0.039-0.093c0.563-3.328,2.008-12.927,3.278-30.142
			c0.469-6.352,2.706-11.671,6.472-15.384c3.681-3.629,8.637-5.547,14.332-5.547s10.651,1.918,14.332,5.547
			c3.766,3.712,6.003,9.032,6.471,15.384c1.271,17.214,2.716,26.814,3.279,30.142c0.009,0.051-0.008,0.074-0.04,0.093
			C99.08,88.969,95.751,90.822,90.558,92.212z M107.714,94.915c0,0.042-0.022,0.081-0.062,0.099l-5.054,2.529
			c-0.059-0.028-0.117-0.061-0.178-0.088l-7.375-3.258c3.586-1.282,6.026-2.673,7.32-3.511c1.113-0.721,1.688-2.032,1.467-3.343
			c-0.012-0.072-0.025-0.149-0.038-0.227c0.907,1.825,2.264,3.374,3.918,4.514V94.915z M116.951,97.916
			c-1.374,1.308-3.528,1.308-4.902,0l-1.499-1.425c0.253-0.475,0.392-1.013,0.392-1.576v-1.718c1.125,0.35,2.321,0.54,3.559,0.54
			c1.237,0,2.433-0.19,3.558-0.54v1.718c0,0.563,0.139,1.101,0.392,1.576L116.951,97.916z M114.5,90.509
			c-4.466,0-8.197-3.348-8.677-7.785c-0.026-0.237-0.104-0.467-0.229-0.671c-1.014-1.652-1.549-3.539-1.549-5.456
			c0-5.769,4.689-10.462,10.455-10.462c5.765,0,10.455,4.693,10.455,10.462c0,1.112-0.181,2.214-0.531,3.265
			c-4.58-4.656-12.637-6.481-13.025-6.566c-0.477-0.105-0.976,0.012-1.358,0.318c-0.38,0.306-0.603,0.77-0.603,1.258
			c0,0.011-0.073,1.13-1.251,2.309c-0.63,0.63-0.63,1.652,0,2.283c0.63,0.63,1.651,0.63,2.281,0c0.907-0.908,1.44-1.83,1.753-2.608
			c2.714,0.808,8.347,2.845,10.875,6.421C122.379,87.437,118.778,90.509,114.5,90.509z M123.12,106.442
			c-0.891,0-1.613,0.724-1.613,1.614v8.218c0,0.892,0.722,1.614,1.613,1.614c0.891,0,1.613-0.722,1.613-1.614v-8.218
			C124.733,107.166,124.011,106.442,123.12,106.442z"/>
	</g>
</g>
</svg>
